<svg width="1200" height="750" viewBox="0 0 1200 750" xmlns="http://www.w3.org/2000/svg" role="img" aria-label="Multi-Tank Setup: Track 3+ Tanks Without Losing Your Mind">
  <defs>
    <linearGradient id="bg" x1="0" y1="0" x2="1" y2="1">
      <stop offset="0" stop-color="#2563eb"/>
      <stop offset="1" stop-color="#172554"/>
    </linearGradient>
  </defs>
  <rect width="1200" height="750" fill="url(#bg)"/>
  <circle cx="1100" cy="90" r="230" fill="#ffffff" opacity="0.06"/>
  <circle cx="70" cy="670" r="270" fill="#ffffff" opacity="0.05"/>
  <circle cx="600" cy="700" r="160" fill="#ffffff" opacity="0.04"/>
  <path d="M0,590 C220,540 420,640 640,600 C840,562 1040,650 1200,600 L1200,750 L0,750 Z" fill="#ffffff" opacity="0.07"/>
  <path d="M0,650 C240,610 460,700 700,660 C900,628 1080,700 1200,660 L1200,750 L0,750 Z" fill="#ffffff" opacity="0.05"/>
  <rect x="484" y="108" width="232" height="44" rx="22" fill="#ffffff" opacity="0.14"/>
  <text x="600" y="137" text-anchor="middle" font-family="Inter, Arial, Helvetica, sans-serif" font-size="20" font-weight="700" letter-spacing="2" fill="#ffffff">SOFTWARE & TOOLS</text>
  <g transform="translate(600,310) scale(1.12)" stroke="#ffffff" stroke-width="9" fill="none" stroke-linecap="round" stroke-linejoin="round">
    <rect x="-72" y="-96" width="144" height="56" rx="12"/>
    <line x1="-72" y1="-76" x2="72" y2="-76"/>
    <circle cx="-40" cy="-84" r="5" fill="#ffffff" stroke="none"/>
    <rect x="-62" y="-28" width="124" height="56" rx="12"/>
    <line x1="-62" y1="-8" x2="62" y2="-8"/>
    <circle cx="-30" cy="-16" r="5" fill="#ffffff" stroke="none"/>
    <rect x="-52" y="40" width="104" height="56" rx="12"/>
    <line x1="-52" y1="60" x2="52" y2="60"/>
    <circle cx="-20" cy="52" r="5" fill="#ffffff" stroke="none"/>
  </g>
  <text x="600" y="636" text-anchor="middle" font-family="Inter, Arial, Helvetica, sans-serif" font-size="16" font-weight="600" letter-spacing="6" fill="#ffffff" opacity="0.75">EASYAQUATIX</text>
  <text x="600" y="688" text-anchor="middle" font-family="Inter, Arial, Helvetica, sans-serif" font-size="17" letter-spacing="2" fill="#ffffff" opacity="0.55">BLOG &amp; RESOURCES</text>
  <text x="600" y="480" text-anchor="middle" font-family="Inter, Arial, Helvetica, sans-serif" font-size="42" font-weight="700" fill="#ffffff">Multi-Tank Setup: Track 3+</text>
  <text x="600" y="542" text-anchor="middle" font-family="Inter, Arial, Helvetica, sans-serif" font-size="42" font-weight="700" fill="#ffffff">Tanks Without Losing Your</text>
  <text x="600" y="604" text-anchor="middle" font-family="Inter, Arial, Helvetica, sans-serif" font-size="42" font-weight="700" fill="#ffffff">Mind</text>
</svg>
